<?xml version="1.0" encoding="utf-8"?><svg xmlns="http://www.w3.org/2000/svg" xmlns:xlink="http://www.w3.org/1999/xlink"><symbol viewBox="0 0 39 11" id="arrow" xmlns="http://www.w3.org/2000/svg"><path d="M36.969 5.944H.499A.493.493 0 010 5.457c0-.269.224-.486.5-.486h36.317L30.859.908a.48.48 0 01-.183-.665.507.507 0 01.683-.178l7.391 4.868a.483.483 0 01.242.509.524.524 0 01-.006.09.482.482 0 01-.236.535l-7.39 4.868a.507.507 0 01-.684-.178.48.48 0 01.183-.665l6.11-4.148z"/></symbol><symbol viewBox="0 0 110 42" id="logo" xmlns="http://www.w3.org/2000/svg"><path d="M21.18 42C9.483 42 0 32.598 0 21S9.483 0 21.18 0s21.18 9.402 21.18 21-9.483 21-21.18 21zm0-4.667c9.098 0 16.473-7.312 16.473-16.333 0-9.02-7.375-16.333-16.473-16.333-9.098 0-16.473 7.312-16.473 16.333 0 9.02 7.375 16.333 16.473 16.333zm0-4.666c-6.5 0-11.767-5.224-11.767-11.667S14.681 9.333 21.18 9.333c6.498 0 11.767 5.224 11.767 11.667S27.678 32.667 21.18 32.667zm0-5.445c3.466 0 6.275-2.786 6.275-6.222 0-3.436-2.81-6.222-6.275-6.222-3.466 0-6.276 2.786-6.276 6.222 0 3.436 2.81 6.222 6.276 6.222zm29.537-13.455h5.368v11.66h7.189v4.129H50.717v-15.79zm20.45 16.014c-1.38 0-2.62-.274-3.719-.823-1.1-.549-1.96-1.308-2.582-2.278-.621-.97-.932-2.072-.932-3.305s.31-2.334.932-3.304c.622-.97 1.483-1.726 2.582-2.267 1.1-.541 2.34-.812 3.72-.812 1.395 0 2.642.27 3.742.812 1.1.541 1.956 1.297 2.57 2.267.615.97.922 2.071.922 3.304 0 1.233-.307 2.335-.921 3.305-.615.97-1.472 1.729-2.571 2.278-1.1.549-2.347.823-3.742.823zm22.75-12.563v9.879c0 2.346-.656 4.109-1.968 5.29-1.312 1.18-3.181 1.77-5.608 1.77-1.243 0-2.404-.132-3.48-.395-1.077-.263-1.995-.643-2.753-1.139l1.729-3.473c.485.36 1.1.654 1.843.88a7.357 7.357 0 002.138.338c1.031 0 1.782-.218 2.252-.655.47-.436.705-1.075.705-1.917v-.225c-.773.872-1.918 1.308-3.435 1.308a6.219 6.219 0 01-2.968-.733 5.582 5.582 0 01-2.196-2.098c-.546-.91-.819-1.95-.819-3.124 0-1.173.273-2.21.82-3.112a5.606 5.606 0 012.195-2.087 6.219 6.219 0 012.968-.733c1.699 0 2.927.541 3.686 1.624v-1.398h4.89zm8.849 12.563c-1.38 0-2.62-.274-3.72-.823-1.1-.549-1.96-1.308-2.582-2.278-.621-.97-.932-2.072-.932-3.305s.31-2.334.932-3.304c.622-.97 1.483-1.726 2.582-2.267 1.1-.541 2.34-.812 3.72-.812 1.395 0 2.643.27 3.742.812 1.1.541 1.956 1.297 2.57 2.267.615.97.922 2.071.922 3.304 0 1.233-.307 2.335-.921 3.305-.615.97-1.471 1.729-2.57 2.278-1.1.549-2.348.823-3.743.823zm-31.598-3.97c.591 0 1.077-.214 1.456-.642.379-.43.568-1.027.568-1.794 0-.767-.19-1.36-.568-1.782-.38-.42-.865-.631-1.456-.631-.592 0-1.077.21-1.456.631-.38.421-.569 1.015-.569 1.782 0 .767.19 1.365.569 1.794.379.428.864.642 1.456.642zm15.537-.902c.607 0 1.111-.184 1.513-.553.402-.368.603-.845.603-1.432 0-.586-.201-1.06-.603-1.42-.402-.362-.906-.542-1.513-.542-.622 0-1.133.18-1.535.541-.402.361-.603.835-.603 1.421 0 .587.205 1.064.614 1.432.41.369.918.553 1.524.553zm16.06.902c.592 0 1.078-.214 1.457-.642.379-.43.569-1.027.569-1.794 0-.767-.19-1.36-.57-1.782-.378-.42-.864-.631-1.455-.631-.592 0-1.077.21-1.456.631-.38.421-.569 1.015-.569 1.782 0 .767.19 1.365.569 1.794.38.428.864.642 1.456.642z"/></symbol><symbol viewBox="0 0 34 34" id="logo-small" xmlns="http://www.w3.org/2000/svg"><path d="M17 0c9.389 0 17 7.611 17 17s-7.611 17-17 17S0 26.389 0 17 7.611 0 17 0zm0 3.778C9.698 3.778 3.778 9.698 3.778 17S9.698 30.222 17 30.222 30.222 24.302 30.222 17 24.302 3.778 17 3.778zm0 3.778a9.444 9.444 0 110 18.888 9.444 9.444 0 010-18.888zm0 4.407a5.037 5.037 0 100 10.074 5.037 5.037 0 000-10.074z"/></symbol></svg>